<?xml version="1.0" encoding="utf-8"?>
<!-- Generator: Adobe Illustrator 24.1.3, SVG Export Plug-In . SVG Version: 6.00 Build 0)  -->
<svg version="1.1" xmlns="http://www.w3.org/2000/svg" xmlns:xlink="http://www.w3.org/1999/xlink" x="0px" y="0px"
	 viewBox="0 0 293.1 291.4" style="enable-background:new 0 0 293.1 291.4;" xml:space="preserve">
<style type="text/css">
	.st0{display:none;}
	.st1{display:inline;opacity:0.2;}
	.st2{fill:#FFAE3F;stroke:#000000;stroke-width:2;stroke-miterlimit:10;}
	.st3{fill:#FFFFFF;}
	.st4{fill:#FFFFFF;stroke:#000000;stroke-width:2;stroke-miterlimit:10;}
	.st5{fill:#C8C8C8;stroke:#000000;stroke-width:2;stroke-miterlimit:10;}
	.st6{fill:#FF1D1D;stroke:#000000;stroke-width:2;stroke-miterlimit:10;}
</style>
<g id="Layer_1" class="st0">
	<g id="mcHzfc.tif" class="st1">
		
			<image style="overflow:visible;" width="800" height="800" id="Layer_0_4_" xlink:href="44B68575C37AA68C.png"  transform="matrix(0.5747 0 0 0.5747 -86.8991 -85.1808)">
		</image>
	</g>
</g>
<g id="Layer_2">
	<path class="st2" d="M145.3,60.5h-70c-6.6,0-12-5.4-12-12v-13c0-6.6,5.4-12,12-12h70c6.6,0,12,5.4,12,12v13
		C157.3,55.1,151.9,60.5,145.3,60.5z"/>
	<circle cx="87.2" cy="42" r="11"/>
	<circle class="st3" cx="85.1" cy="37.9" r="4.2"/>
	<circle class="st3" cx="91.1" cy="47.2" r="2"/>
	<circle cx="130.4" cy="42" r="11"/>
	<circle class="st3" cx="128.3" cy="37.9" r="4.2"/>
	<circle class="st3" cx="134.3" cy="47.2" r="2"/>
	<path class="st4" d="M137.6,82.3H83.1c-6,0-10.9-4.9-10.9-10.9v0c0-6,4.9-10.9,10.9-10.9h54.5c6,0,10.9,4.9,10.9,10.9v0
		C148.5,77.4,143.6,82.3,137.6,82.3z"/>
	<rect x="100.9" y="82.3" class="st4" width="18.5" height="69"/>
	<rect x="202.3" y="83" class="st5" width="8.4" height="68.3"/>
	<path class="st4" d="M120.3,142.7h-20c-2.9,0-5.3-2.4-5.3-5.3v0c0-2.9,2.4-5.3,5.3-5.3h20c2.9,0,5.3,2.4,5.3,5.3v0
		C125.7,140.3,123.3,142.7,120.3,142.7z"/>
	<path class="st6" d="M216,86h-20c-2.9,0-5.3-2.4-5.3-5.3v0c0-2.9,2.4-5.3,5.3-5.3h20c2.9,0,5.3,2.4,5.3,5.3v0
		C221.3,83.6,218.9,86,216,86z"/>
	<rect x="21.4" y="151.3" class="st5" width="250" height="8.5"/>
	<path class="st5" d="M249.7,239.7H54.9c-6.6,0-12-5.4-12-12v-32.3c0-6.6,5.4-12,12-12h194.8c6.6,0,12,5.4,12,12v32.3
		C261.7,234.3,256.3,239.7,249.7,239.7z"/>
	<path class="st4" d="M220.1,207.1H78.6c-6.6,0-12-5.4-12-12v-23.3c0-6.6,5.4-12,12-12h141.6c6.6,0,12,5.4,12,12v23.3
		C232.1,201.7,226.7,207.1,220.1,207.1z"/>
	<circle class="st2" cx="95" cy="182.5" r="7.1"/>
	<circle class="st2" cx="128.3" cy="182.5" r="7.1"/>
	<circle class="st2" cx="161.6" cy="182.5" r="7.1"/>
	<path class="st5" d="M56.3,213.8c-14.3,0-25.9,11.6-25.9,25.9s11.6,25.9,25.9,25.9c14.3,0,25.9-11.6,25.9-25.9
		S70.6,213.8,56.3,213.8z M56.3,255.9c-8.9,0-16.1-7.2-16.1-16.1c0-8.9,7.2-16.1,16.1-16.1c8.9,0,16.1,7.2,16.1,16.1
		C72.5,248.7,65.2,255.9,56.3,255.9z"/>
	<path class="st5" d="M119.2,213.8c-14.3,0-25.9,11.6-25.9,25.9s11.6,25.9,25.9,25.9s25.9-11.6,25.9-25.9S133.5,213.8,119.2,213.8z
		 M119.2,255.9c-8.9,0-16.1-7.2-16.1-16.1c0-8.9,7.2-16.1,16.1-16.1s16.1,7.2,16.1,16.1C135.3,248.7,128.1,255.9,119.2,255.9z"/>
	<path class="st5" d="M182,213.8c-14.3,0-25.9,11.6-25.9,25.9s11.6,25.9,25.9,25.9s25.9-11.6,25.9-25.9S196.3,213.8,182,213.8z
		 M182,255.9c-8.9,0-16.1-7.2-16.1-16.1c0-8.9,7.2-16.1,16.1-16.1c8.9,0,16.1,7.2,16.1,16.1C198.1,248.7,190.9,255.9,182,255.9z"/>
	<path class="st5" d="M244.8,213.8c-14.3,0-25.9,11.6-25.9,25.9s11.6,25.9,25.9,25.9c14.3,0,25.9-11.6,25.9-25.9
		S259.1,213.8,244.8,213.8z M244.8,255.9c-8.9,0-16.1-7.2-16.1-16.1c0-8.9,7.2-16.1,16.1-16.1c8.9,0,16.1,7.2,16.1,16.1
		C260.9,248.7,253.7,255.9,244.8,255.9z"/>
</g>
</svg>
